<?xml version="1.0" encoding="utf-8"?>
<!-- Generator: Adobe Illustrator 24.0.0, SVG Export Plug-In . SVG Version: 6.00 Build 0)  -->
<svg version="1.1" id="Layer_1" xmlns="http://www.w3.org/2000/svg" xmlns:xlink="http://www.w3.org/1999/xlink" x="0px" y="0px"
	 viewBox="0 0 50 50" style="enable-background:new 0 0 50 50;" xml:space="preserve">
<style type="text/css">
	.st0{opacity:0.98;}
	.st1{fill:#FFFFFF;}
	.st2{fill:#FFFFFF;stroke:#000000;stroke-width:2;stroke-miterlimit:10;}
</style>
<g class="st0">
	<circle class="st1" cx="25" cy="25" r="24"/>
	<path d="M25,2c12.68,0,23,10.32,23,23S37.68,48,25,48S2,37.68,2,25S12.32,2,25,2 M25,0C11.19,0,0,11.19,0,25s11.19,25,25,25
		s25-11.19,25-25S38.81,0,25,0L25,0z"/>
</g>
<path class="st2" d="M25,49"/>
<g>
	<g>
		<path d="M29.31,50.13c1.93,0,1.93-3,0-3C27.38,47.13,27.38,50.13,29.31,50.13L29.31,50.13z"/>
	</g>
</g>
<g>
	<g>
		<path d="M29.31,50.13c1.93,0,1.93-3,0-3C27.38,47.13,27.38,50.13,29.31,50.13L29.31,50.13z"/>
	</g>
</g>
<g>
	<g>
		<path class="st1" d="M29.94,49.67c1.93,0,1.93-3,0-3C28.01,46.67,28.01,49.67,29.94,49.67L29.94,49.67z"/>
	</g>
</g>
<g>
	<g>
		<path class="st1" d="M28.26,47.54c-0.1,0.41-0.12,0.82-0.09,1.24c0.01,0.12,0.01,0.24,0.02,0.37c-0.01,0.18-0.01,0.18,0.02,0
			c-0.01,0.09-0.03,0.18-0.05,0.27c-0.14,0.66-0.33,1.31-0.5,1.96c0.91-0.12,1.83-0.24,2.74-0.36c-0.2-0.37-0.39-0.75-0.56-1.14
			c-0.17-0.38,0.11,0.28-0.05-0.11c-0.03-0.08-0.06-0.16-0.09-0.24c-0.08-0.22-0.16-0.44-0.23-0.66c-0.13-0.4-0.24-0.81-0.34-1.22
			c-0.05-0.21-0.09-0.41-0.13-0.62c-0.02-0.1-0.04-0.21-0.05-0.31c-0.01-0.08-0.07-0.46-0.02-0.1c-0.1-0.75-0.5-1.37-1.3-1.47
			c-0.67-0.09-1.52,0.34-1.65,1.07c-0.28,1.69-0.6,3.36-0.95,5.04c0.62-0.35,1.23-0.7,1.85-1.05c-0.03-0.01-0.05-0.02-0.08-0.03
			c0.22,0.13,0.44,0.26,0.66,0.39c0.15,0.16,0.26,0.4,0.29,0.61c-0.01-0.11-0.03-0.23-0.04-0.34c-0.02-0.18-0.04-0.36-0.06-0.54
			c-0.04-0.41-0.08-0.82-0.12-1.23c-0.07-0.8-0.12-1.59-0.15-2.39c-0.03-0.78-0.67-1.54-1.5-1.5c-0.81,0.04-1.5,0.66-1.5,1.5
			c0,1.07-0.05,2.15-0.16,3.22c1,0,2,0,3,0c0.06-0.96,0.07-1.91,0.05-2.87c-0.85,0.35-1.71,0.71-2.56,1.06
			c-0.37-0.43,0.28,0.35-0.05-0.11c0.07,0.1,0.1,0.3,0.13,0.42c0.07,0.26,0.12,0.53,0.18,0.8c0.13,0.57,0.27,1.14,0.44,1.71
			c0.37,1.22,0.86,2.42,1.58,3.47c0.44,0.65,1.34,1,2.05,0.54c0.64-0.41,1.01-1.36,0.54-2.05c-0.32-0.48-0.7-1.03-0.87-1.58
			c0.11,0.36-0.05-0.13-0.08-0.2c-0.06-0.15-0.11-0.3-0.16-0.46c-0.1-0.29-0.19-0.58-0.27-0.87c-0.37-1.3-0.45-2.74-1.37-3.8
			c-0.39-0.45-1.12-0.53-1.64-0.31c-0.54,0.23-0.93,0.77-0.92,1.37c0.02,0.96,0,1.92-0.05,2.87c-0.05,0.78,0.72,1.53,1.5,1.5
			c0.88-0.04,1.41-0.66,1.5-1.5c0.11-1.07,0.17-2.14,0.16-3.22c-1,0-2,0-3,0c0.04,1,0.11,2.01,0.21,3.01c0.05,0.5,0.1,1,0.17,1.5
			c0.05,0.39,0.08,0.72,0.26,1.07c0.23,0.45,0.61,0.67,1.07,0.86c0.72,0.29,1.69-0.32,1.85-1.05c0.35-1.67,0.66-3.35,0.95-5.04
			c-0.98-0.13-1.96-0.27-2.95-0.4c0.27,2.09,0.87,4.06,1.88,5.91c0.62,1.13,2.42,0.87,2.74-0.36c0.17-0.65,0.36-1.3,0.5-1.96
			c0.08-0.39,0.15-0.79,0.14-1.19c0-0.16-0.03-0.33-0.03-0.49c0-0.08-0.01-0.16,0-0.24c-0.04,0.2-0.04,0.21,0,0.04
			c0.19-0.76-0.24-1.66-1.05-1.85C29.33,46.32,28.46,46.73,28.26,47.54L28.26,47.54z"/>
	</g>
</g>
<g>
	<g>
		<path class="st1" d="M42.4,34.45c1.31,1.49,2.69,2.91,4.16,4.24c0.35-0.85,0.71-1.71,1.06-2.56c-1.77,0.19-3.55,0.27-5.33,0.24
			c-1.46-0.03-3.38-0.56-4.67,0.3c-0.88,0.58-0.92,1.57-0.3,2.36c1.01,1.28,2.1,2.48,3.3,3.59c0.99,0.91,2.48,2.59,3.94,2.49
			c0.77-0.05,1.55-0.64,1.5-1.5c-0.09-1.55-0.23-3.1-0.42-4.64c-0.93,0.25-1.86,0.5-2.8,0.76c0.61,1.09,1.23,2.19,1.84,3.28
			c0.95,1.69,3.46,0.2,2.59-1.51c-0.9-1.76-1.98-3.39-3.2-4.94c-0.46-0.59-1.66-0.58-2.12,0c-0.87,1.1-0.92,2.26-1.02,3.62
			c-0.11,1.44-0.22,2.89-0.32,4.33c0.93-0.25,1.86-0.5,2.8-0.76c-1.04-1.58-2.02-3.19-2.93-4.85c-0.81-1.47-1.41-3.4-2.76-4.48
			c-1.03-0.83-2.45-0.3-2.56,1.06c-0.37,4.65,0.81,9.22,0.99,13.85c0.93-0.25,1.86-0.5,2.8-0.76c-1.09-1.83-1.96-3.77-2.79-5.73
			c-0.4-0.94-0.79-1.89-1.19-2.83c-0.39-0.91-0.74-2.17-1.86-2.37c-1.15-0.2-2.09,0.66-1.85,1.85c0.89,4.22,1.77,8.44,2.66,12.66
			c0.91-0.39,1.83-0.77,2.74-1.16c-1.09-2.16-2.18-4.31-3.28-6.47c-0.66-1.29-2.92-0.72-2.8,0.76c0.14,1.68,0.28,3.36,0.42,5.05
			c0.98-0.13,1.96-0.27,2.95-0.4c-0.43-1.07-0.81-2.16-1.15-3.27c-0.96,0.27-1.93,0.53-2.89,0.8c0.29,0.82,0.58,1.64,0.87,2.46
			c0.55,1.57,2.88,1.35,2.95-0.4c0.04-1.13,0.08-2.26,0.12-3.39c0.02-0.5,0.04-1,0.05-1.51c0.01-0.24-0.03-1.01,0.04-1.09
			c-0.49,0.13-0.97,0.26-1.46,0.39c1.08,0.43,2.12,0.98,3.1,1.59c1.05,0.66,2.1,1.44,3.38,0.84c1-0.47,1.33-1.48,1.54-2.48
			c0.28-1.32,0.56-2.65,0.83-3.97c-0.73,0.3-1.47,0.6-2.2,0.9c0.45,0.34,0.71,0.92,1,1.4c0.35,0.59,0.71,1.18,1.06,1.77
			c0.86,1.43,3.25,0.51,2.74-1.16c-0.43-1.41-1-2.77-1.69-4.07c-0.57-1.07-2.52-0.93-2.74,0.36c-0.21,1.23-0.34,2.46-0.36,3.71
			c0.98-0.13,1.96-0.27,2.95-0.4c-0.38-2.67-0.76-5.35-1.14-8.02c-0.91,0.39-1.83,0.77-2.74,1.16c1.09,2.27,2.17,4.54,3.26,6.81
			c0.73,1.52,3.31,0.45,2.74-1.16c-0.48-1.34-1.06-2.64-1.77-3.88c-0.66-1.15-2.36-0.85-2.74,0.36c-0.58,1.84-1.27,3.64-2.12,5.38
			c-0.37,0.76-0.73,1.69-1.26,2.36c-0.47,0.59-1.46,1.29-2.16,1.58c0.25-0.07,0.5-0.14,0.76-0.2c-0.71,0.03-1.61-0.41-2.27-0.65
			c-0.8-0.3-1.57-0.69-2.32-1.12c-0.66-0.37-1.71-0.21-2.05,0.54c-0.84,1.81,0.1,3.95,0.7,5.72c0.63,1.85,3.2,1.09,2.89-0.8
			c-0.35-2.16-0.7-4.31-1.05-6.47c-0.91,0.39-1.83,0.77-2.74,1.16c1.16,2.34,2.31,4.69,3.47,7.03c0.5,1.02,2.07,0.94,2.59,0
			c0.31-0.55,0.44-1.12,0.43-1.75c-0.01-0.51-0.18-0.99,0.02-1.47c-0.84,0.22-1.67,0.44-2.51,0.66c0.81,1,1.61,2,2.42,3
			c0.37,0.46,0.72,1.05,1.19,1.4c0.54,0.41,1.08,0.3,1.7,0.21c0.7-0.11,1.03-0.84,1.1-1.45c0.17-1.39,0.35-2.78,0.52-4.17
			c-0.75,0.43-1.5,0.86-2.26,1.3c0.66,0.33,1.15,0.7,1.64,1.26c0.59,0.68,1.97,0.55,2.36-0.3c0.38-0.85,0.6-1.67,0.58-2.61
			c-0.03-1.93-3.03-1.93-3,0c0.01,0.38-0.02,0.74-0.18,1.09c0.79-0.1,1.57-0.2,2.36-0.3c-0.63-0.72-1.39-1.31-2.25-1.73
			c-1.1-0.54-2.11,0.14-2.26,1.3c-0.17,1.39-0.35,2.78-0.52,4.17c0.37-0.48,0.73-0.96,1.1-1.45c-0.13,0.02-0.26,0.04-0.4,0.06
			c0.49,0.13,0.97,0.26,1.46,0.39c-1.15-1.43-2.3-2.86-3.46-4.29c-0.79-0.98-2.14-0.26-2.51,0.66c-0.18,0.46-0.23,0.95-0.2,1.44
			c0.02,0.31,0.15,0.89,0.06,1.07c0.86,0,1.73,0,2.59,0c-1.16-2.34-2.31-4.69-3.47-7.03c-0.33-0.67-1.23-0.88-1.87-0.61
			c-0.73,0.31-0.99,1.02-0.87,1.77c0.35,2.16,0.7,4.31,1.05,6.47c0.96-0.27,1.93-0.53,2.89-0.8c-0.22-0.63-0.42-1.27-0.6-1.92
			c-0.09-0.31-0.48-1.34-0.41-1.49c-0.68,0.18-1.37,0.36-2.05,0.54c1.52,0.86,3.16,1.57,4.86,2c0.87,0.22,1.59,0.25,2.37-0.23
			c0.71-0.43,1.47-0.98,2.08-1.53c1.21-1.09,1.9-2.94,2.56-4.4c0.73-1.62,1.37-3.28,1.9-4.98c-0.91,0.12-1.83,0.24-2.74,0.36
			c0.58,1.02,1.07,2.06,1.47,3.16c0.91-0.39,1.83-0.77,2.74-1.16c-1.09-2.27-2.17-4.54-3.26-6.81c-0.32-0.67-1.24-0.88-1.87-0.61
			c-0.74,0.31-0.98,1.02-0.87,1.77c0.38,2.67,0.76,5.35,1.14,8.02c0.24,1.72,2.92,1.23,2.95-0.4c0.02-0.98,0.09-1.95,0.26-2.91
			c-0.91,0.12-1.83,0.24-2.74,0.36c0.57,1.08,1.03,2.19,1.39,3.35c0.91-0.39,1.83-0.77,2.74-1.16c-0.91-1.51-1.68-3.17-3.13-4.24
			c-0.76-0.56-2.02,0.02-2.2,0.9c-0.19,0.9-0.38,1.8-0.57,2.71c-0.09,0.42-0.17,0.84-0.27,1.26c-0.04,0.18-0.17,0.69-0.16,0.69
			c0.25-0.07,0.5-0.14,0.76-0.2c-0.3,0.02-0.71-0.39-0.96-0.55c-0.43-0.27-0.86-0.53-1.31-0.77c-0.86-0.46-1.75-0.85-2.65-1.22
			c-0.47-0.19-1.13,0.03-1.46,0.39c-0.94,1.01-0.89,2.28-0.94,3.59c-0.05,1.51-0.11,3.01-0.16,4.52c0.98-0.13,1.96-0.27,2.95-0.4
			c-0.29-0.82-0.58-1.64-0.87-2.46c-0.63-1.8-3.47-1.07-2.89,0.8c0.34,1.11,0.72,2.19,1.15,3.27c0.28,0.69,0.86,1.19,1.65,1.07
			c0.68-0.1,1.36-0.72,1.3-1.47c-0.14-1.68-0.28-3.36-0.42-5.05c-0.93,0.25-1.86,0.5-2.8,0.76c1.09,2.16,2.18,4.31,3.28,6.47
			c0.8,1.58,3.08,0.44,2.74-1.16c-0.89-4.22-1.77-8.44-2.66-12.66c-0.62,0.62-1.23,1.23-1.85,1.85c0.06,0.01,0.12,0.02,0.18,0.03
			c-0.3-0.23-0.6-0.46-0.9-0.69c0.51,0.69,0.79,1.65,1.12,2.44c0.37,0.89,0.74,1.78,1.12,2.66c0.75,1.75,1.55,3.47,2.52,5.1
			c0.74,1.24,2.85,0.76,2.8-0.76c-0.18-4.63-1.36-9.2-0.99-13.85c-0.85,0.35-1.71,0.71-2.56,1.06c0.59,0.47,0.85,1.11,1.18,1.77
			c0.41,0.82,0.84,1.62,1.28,2.42c0.86,1.54,1.78,3.05,2.75,4.53c0.84,1.28,2.68,0.73,2.8-0.76c0.08-1.07,0.16-2.13,0.24-3.2
			c0.04-0.5,0.08-1,0.11-1.51c0.02-0.25-0.05-0.91,0.12-1.12c-0.71,0-1.41,0-2.12,0c1.06,1.34,1.96,2.81,2.73,4.33
			c0.86-0.5,1.73-1.01,2.59-1.51c-0.61-1.09-1.23-2.19-1.84-3.28c-0.68-1.22-2.98-0.77-2.8,0.76c0.18,1.54,0.32,3.09,0.42,4.64
			c0.5-0.5,1-1,1.5-1.5c0.16-0.01-0.4-0.38-0.42-0.4c-0.26-0.21-0.52-0.43-0.77-0.65c-0.47-0.4-0.92-0.83-1.36-1.26
			c-0.92-0.91-1.77-1.88-2.57-2.89c-0.1,0.79-0.2,1.57-0.3,2.36c0.24-0.16,1.2,0.03,1.63,0.05c0.76,0.04,1.52,0.06,2.29,0.07
			c1.53,0,3.05-0.09,4.57-0.25c1.19-0.12,2.11-1.6,1.06-2.56c-1.46-1.34-2.85-2.75-4.16-4.24C43.25,30.88,41.13,33.01,42.4,34.45
			L42.4,34.45z"/>
	</g>
</g>
<g>
	<g>
		<path class="st1" d="M66.53,55.69c1.93,0,1.93-3,0-3C64.6,52.69,64.59,55.69,66.53,55.69L66.53,55.69z"/>
	</g>
</g>
</svg>
